<svg xmlns="http://www.w3.org/2000/svg" viewBox="0 0 94.16 24">
  <path d="M9.65 0h4.7L24 23.77H7.88l1.4-3.54 9.33.04L12 3.95 3.95 23.78H0Z"/>
  <path d="m25.14 18.44 3.52-.63q.26 1.82 1.63 2.6 1.37.74 3.93.74 5.4 0 5.4-3.37 0-.93-1.48-1.37-1.44-.45-3.52-.63-2.07-.23-4.14-.56-2.08-.37-3.56-1.44-1.45-1.11-1.45-3.04 0-1.52.7-2.63.75-1.15 1.71-1.7.97-.56 2.3-.9 1.37-.36 2.26-.44.89-.07 1.81-.07 1.26 0 2.49.22 1.25.22 2.59.74 1.37.48 2.3 1.56.96 1.03 1.14 2.48l-3.3.48q-.24-1.48-1.5-2.04-1.26-.59-3.78-.59-2.63 0-3.85.67-1.23.63-1.23 2.33 0 .96 1.45 1.44 1.48.45 3.56.63 2.07.19 4.14.56 2.08.33 3.52 1.4 1.48 1.08 1.48 2.97 0 1.6-.74 2.82-.74 1.18-1.77 1.81-1 .6-2.41.96-1.37.37-2.34.45-.92.11-1.85.11-.81 0-1.74-.11-.92-.08-2.22-.4-1.3-.38-2.33-.93-1-.6-1.82-1.63-.78-1.08-.89-2.49zm20.91 5.34V5.26h3.6v18.52zm6.87 0V0h3.63v23.78zm16.76.22q-4.38 0-7.3-2.44-2.93-2.45-2.93-7.04 0-4.6 2.93-7.04Q65.3 5 69.68 5.03q4.4.04 7.33 2.49 2.93 2.4 2.93 7 0 4.59-2.93 7.04Q74.08 24 69.68 24zm0-15.9q-2.7-.03-4.67 1.71-1.93 1.7-1.93 4.7 0 3.12 1.85 4.75 1.86 1.63 4.75 1.63 2.85 0 4.74-1.63 1.89-1.67 1.89-4.74 0-3-1.93-4.67-1.89-1.7-4.7-1.74zm12.98 2.12c0-3.3 1.64-4.96 4.92-4.96h6.58v3.4l-5.4.04c-1.05 0-1.73.16-2.03.48-.3.3-.44 1.07-.44 2.3v12.3h-3.63z" aria-label="Asilor"/>
  <rect width="3.6" height="3.6" x="46" fill="#ff001f" rx="0" ry="0"/>
</svg>