<svg width="183" height="43" xmlns="http://www.w3.org/2000/svg" xmlns:xlink="http://www.w3.org/1999/xlink"><defs><path id="a" d="M0 0h20.966v36.044H0z"/></defs><g fill="none" fill-rule="evenodd"><g transform="translate(.628 6.119)"><mask id="b" fill="#fff"><use xlink:href="#a"/></mask><path d="M17.059 35.494c-1.266.33-3.357.55-4.567.55-7.705 0-10.236-3.247-9.41-9.74l1.375-11.226H0l.715-5.833 4.568-1.211.715-5.668L15.078 0l-.935 7.759h6.823l-.88 7.319h-6.824l-1.32 10.51c-.276 2.147.44 3.357 3.246 3.357 1.156 0 2.256-.22 2.696-.33l-.825 6.879z" fill="#000" mask="url(#b)"/></g><path d="M39.478 20.591c-.44-.11-1.54-.22-2.696-.22-2.696 0-5.228.936-5.998 1.596l-2.366 19.425h-8.805l3.357-27.514h5.283l.825 1.98c1.541-1.32 4.733-2.75 8.86-2.75 1.1 0 2.036.22 2.421.385l-.88 7.098zM56.647 21.417s-1.54-1.156-3.742-1.156c-4.072 0-5.283 2.697-5.888 7.374-.55 4.733 0 7.374 4.072 7.374 2.201 0 4.017-1.156 4.017-1.156l1.541-12.436zm6.384 19.975h-5.283l-1.266-2.2c-2.091 1.65-4.843 2.97-9.245 2.97-7.154 0-10.125-4.402-8.915-14.527 1.266-10.125 5.338-14.528 12.492-14.528 4.402 0 6.823 1.321 8.53 2.972l1.76-2.201h5.283l-3.356 27.514zM84.656 21.417s-1.54-1.156-3.742-1.156c-4.072 0-5.283 2.697-5.888 7.374-.55 4.733 0 7.374 4.073 7.374 2.2 0 4.017-1.156 4.017-1.156l1.54-12.436zm1.1 19.975-1.265-2.2c-2.09 1.65-4.842 2.97-9.245 2.97-7.154 0-10.125-4.402-8.914-14.527 1.265-10.125 5.337-14.528 12.492-14.528 3.026 0 5.117.77 6.657 1.761L87.298.12h8.804L91.04 41.392h-5.283zM107.658 25.159c2.476 0 3.577-1.376 3.742-2.752.165-1.375-.606-2.696-3.082-2.696-2.971 0-4.568 1.98-4.952 5.448h4.292zm-4.953 5.393c-.66 3.577 1.045 4.622 5.338 4.622 4.127 0 7.319-.825 9.41-1.816l-.826 6.879c-3.357 1.32-7.263 1.926-10.565 1.926-9.08 0-12.932-4.622-11.722-14.528 1.211-9.905 6.164-14.528 14.693-14.528 8.475 0 11.722 3.082 11.006 8.695-.66 5.613-4.677 8.75-13.152 8.75h-4.182z" fill="#000"/><path fill="#161412" d="M122.594 41.246h56.904l3.492-28.102h-56.9z"/><path d="M154.003 17.148v.004c-.014 0-.027-.004-.041-.004-1.304 0-2.502 1.06-2.66 2.353l-.354 2.88-.66 5.366-.25 2.048-7.932-12.647h-4.743l-1.165 9.485-.876 7.131v.001l-.289 2.353h2.109v-.027c.087.01.171.027.262.027 1.304 0 2.502-1.06 2.66-2.354l1.265-10.293 7.932 12.647h4.742l1.165-9.485.876-7.132.29-2.353h-2.33zM132.662 17.148v.004c-.015 0-.028-.004-.041-.004-1.305 0-2.502 1.06-2.66 2.353l-.354 2.88-.66 5.366-.739 6.017v.001l-.288 2.353h2.262v-.011c.037.002.07.011.109.011 1.304 0 2.501-1.06 2.66-2.354l1.752-14.263.289-2.353h-2.33zM177.386 19.5l.288-2.352h-2.33v.004c-.014 0-.027-.004-.04-.004-1.305 0-2.502 1.06-2.66 2.353l-.355 2.88-.659 5.366-.252 2.048-7.93-12.647h-4.743l-1.166 9.485-.876 7.131v.001l-.289 2.353h2.109v-.027c.087.01.171.027.263.027 1.304 0 2.501-1.06 2.66-2.354l1.264-10.293 7.932 12.647h4.743l1.164-9.485.877-7.132z" fill="#FFF"/></g></svg>